<svg width="535" height="300" viewBox="0 0 535 300" fill="none" xmlns="http://www.w3.org/2000/svg">
<g clip-path="url(#clip0_3_1674)">
<path d="M60.0519 78.2205H119.644V89.3758H96.2848V151.926H83.4108V89.3758H60.0519V78.2205Z" fill="white"/>
<path d="M126.545 78.2205H138.357V105.578H138.623C140.083 103.187 142.206 101.195 145.126 99.6016C147.913 98.008 151.099 97.2112 154.682 97.2112C160.522 97.2112 165.167 98.672 168.485 101.726C171.803 104.781 173.529 109.296 173.529 115.405V152.058H161.716V118.327C161.584 114.077 160.655 111.023 159.062 109.163C157.469 107.304 154.815 106.375 151.364 106.375C149.373 106.375 147.648 106.773 146.055 107.437C144.463 108.101 143.135 109.163 142.074 110.491C141.012 111.819 140.083 113.28 139.552 115.007C138.888 116.733 138.623 118.592 138.623 120.452V151.926H126.811V78.2205H126.545Z" fill="white"/>
<path d="M186.137 78.2205H197.949V89.3758H186.137V78.2205ZM186.137 98.5392H197.949V151.926H186.137V98.5392Z" fill="white"/>
<path d="M219.583 134.794C219.981 138.247 221.176 140.637 223.565 141.966C225.821 143.294 228.608 144.09 231.661 144.09C232.722 144.09 234.05 143.958 235.377 143.825C236.837 143.692 238.164 143.294 239.359 142.895C240.553 142.364 241.615 141.7 242.411 140.77C243.207 139.841 243.606 138.645 243.473 137.052C243.34 135.591 242.809 134.263 241.88 133.333C240.818 132.404 239.491 131.607 237.899 131.076C236.306 130.545 234.448 130.013 232.324 129.615C230.201 129.216 228.21 128.818 226.086 128.287C223.83 127.756 221.707 127.224 219.716 126.56C217.725 125.896 215.867 124.967 214.274 123.772C212.681 122.576 211.354 121.116 210.425 119.256C209.496 117.397 208.965 115.139 208.965 112.483C208.965 109.562 209.629 107.171 211.089 105.179C212.549 103.187 214.274 101.594 216.398 100.398C218.521 99.2032 220.91 98.4064 223.565 97.8752C226.219 97.344 228.741 97.2112 231.13 97.2112C233.917 97.2112 236.571 97.4768 238.96 98.1408C241.482 98.672 243.738 99.7344 245.729 100.93C247.72 102.258 249.445 103.984 250.773 105.976C252.1 108.101 252.896 110.624 253.294 113.546H241.084C240.553 110.757 239.226 108.898 237.235 107.835C235.244 106.906 232.855 106.375 230.333 106.375C229.537 106.375 228.475 106.507 227.414 106.64C226.219 106.773 225.157 107.039 224.228 107.437C223.166 107.835 222.37 108.367 221.707 109.031C221.043 109.695 220.645 110.757 220.645 111.819C220.645 113.28 221.176 114.475 222.105 115.272C223.167 116.202 224.361 116.866 226.086 117.53C227.679 118.061 229.537 118.592 231.661 118.991C233.784 119.389 235.908 119.788 238.031 120.319C240.155 120.85 242.278 121.381 244.269 122.045C246.393 122.709 248.118 123.639 249.843 124.834C251.436 126.029 252.763 127.49 253.825 129.217C254.754 130.943 255.285 133.201 255.285 135.857C255.285 139.044 254.621 141.7 253.162 143.958C251.702 146.215 249.843 147.942 247.587 149.27C245.331 150.598 242.677 151.66 239.889 152.324C237.102 152.988 234.315 153.254 231.528 153.254C228.21 153.254 225.025 152.855 222.237 152.058C219.318 151.262 216.929 150.199 214.805 148.606C212.682 147.012 211.089 145.153 209.894 142.762C208.7 140.505 208.036 137.716 208.036 134.529H219.583V134.794Z" fill="white"/>
<path d="M313.682 122.975L286.076 78.2205H301.074L320.584 111.288L339.829 78.2205H354.295L326.822 122.975V151.926H313.948V122.975H313.682Z" fill="white"/>
<path d="M359.339 128.287C359.339 130.412 359.604 132.404 360.268 134.263C360.799 136.255 361.728 137.849 362.922 139.309C364.117 140.77 365.576 141.965 367.302 142.762C369.027 143.559 371.283 144.09 373.672 144.09C377.123 144.09 379.91 143.294 382.034 141.833C384.157 140.372 385.75 138.114 386.679 135.193H397.828C397.164 138.114 396.102 140.637 394.642 142.895C393.183 145.153 391.324 147.012 389.201 148.606C387.077 150.199 384.688 151.262 382.034 152.058C379.38 152.855 376.592 153.254 373.672 153.254C369.425 153.254 365.709 152.59 362.524 151.129C359.339 149.801 356.551 147.809 354.295 145.286C352.039 142.762 350.314 139.841 349.252 136.388C348.057 132.935 347.526 129.216 347.526 125.1C347.526 121.381 348.19 117.663 349.384 114.343C350.579 110.89 352.304 107.968 354.561 105.312C356.817 102.789 359.471 100.664 362.657 99.2032C365.842 97.7424 369.425 96.9456 373.407 96.9456C377.654 96.9456 381.37 97.8752 384.688 99.6016C388.006 101.328 390.794 103.718 393.05 106.507C395.306 109.429 396.899 112.749 397.828 116.467C398.89 120.186 399.022 124.037 398.624 128.021H359.339V128.287ZM386.812 120.452C386.679 118.592 386.281 116.866 385.617 115.139C384.954 113.413 384.025 111.952 382.963 110.624C381.768 109.296 380.441 108.367 378.849 107.57C377.256 106.773 375.398 106.375 373.407 106.375C371.284 106.375 369.425 106.773 367.833 107.437C366.107 108.101 364.647 109.163 363.453 110.491C362.258 111.819 361.329 113.28 360.533 115.007C359.869 116.733 359.471 118.592 359.339 120.584H386.812V120.452Z" fill="white"/>
<path d="M452.244 139.973C452.244 141.434 452.376 142.497 452.774 143.028C453.173 143.692 453.836 143.957 455.031 143.957C455.429 143.957 455.827 143.957 456.225 143.957C456.756 143.957 457.287 143.825 457.818 143.692V151.793C457.42 151.926 456.889 152.058 456.225 152.324C455.562 152.457 454.898 152.59 454.234 152.722C453.571 152.855 452.907 152.988 452.111 152.988C451.447 153.121 450.784 153.121 450.385 153.121C447.997 153.121 446.006 152.59 444.413 151.66C442.82 150.73 441.759 149.004 441.36 146.614C438.971 148.871 436.184 150.598 432.734 151.527C429.283 152.59 426.097 153.121 422.912 153.121C420.523 153.121 418.267 152.855 416.011 152.191C413.754 151.527 411.896 150.598 410.171 149.27C408.446 147.942 407.118 146.348 406.189 144.356C405.128 142.364 404.729 140.106 404.729 137.45C404.729 134.13 405.393 131.474 406.587 129.349C407.782 127.224 409.375 125.631 411.365 124.436C413.356 123.24 415.48 122.444 418.002 121.912C420.39 121.381 422.912 120.983 425.434 120.717C427.557 120.319 429.548 120.053 431.539 119.787C433.53 119.655 435.123 119.389 436.582 118.858C438.042 118.459 439.237 117.795 440.033 116.999C440.83 116.202 441.36 114.874 441.36 113.147C441.36 111.687 440.962 110.359 440.299 109.429C439.635 108.499 438.706 107.703 437.644 107.171C436.582 106.64 435.388 106.374 434.061 106.109C432.734 105.976 431.539 105.843 430.345 105.843C427.027 105.843 424.372 106.507 422.249 107.968C420.125 109.296 418.931 111.421 418.665 114.343H406.853C407.118 110.89 407.915 108.101 409.375 105.843C410.835 103.586 412.693 101.726 414.949 100.398C417.205 99.0704 419.727 98.008 422.514 97.4767C425.301 96.9455 428.221 96.6799 431.141 96.6799C433.795 96.6799 436.317 96.9455 438.839 97.4767C441.36 98.008 443.617 98.9376 445.74 100.133C447.731 101.328 449.456 102.922 450.651 104.914C451.845 106.906 452.509 109.296 452.509 112.085V139.973H452.244ZM440.431 125.1C438.706 126.295 436.45 126.959 433.795 127.224C431.141 127.49 428.619 127.888 425.965 128.287C424.77 128.552 423.576 128.818 422.381 129.216C421.187 129.615 420.125 130.146 419.329 130.81C418.4 131.474 417.736 132.271 417.205 133.333C416.674 134.396 416.409 135.724 416.409 137.185C416.409 138.513 416.807 139.575 417.603 140.505C418.4 141.434 419.329 142.098 420.39 142.629C421.452 143.161 422.647 143.559 423.841 143.692C425.168 143.957 426.23 143.957 427.292 143.957C428.619 143.957 429.946 143.825 431.539 143.426C432.999 143.028 434.459 142.497 435.786 141.7C437.113 140.903 438.308 139.841 439.104 138.513C440.033 137.185 440.431 135.724 440.431 133.865V125.1Z" fill="white"/>
<path d="M464.852 98.5392H475.868V108.898H476.133C476.532 107.437 477.195 106.109 478.124 104.648C479.053 103.32 480.381 101.992 481.708 100.93C483.168 99.7344 484.628 98.9376 486.353 98.1408C488.078 97.4768 489.804 97.0784 491.662 97.0784C492.989 97.0784 493.918 97.0784 494.449 97.2112C494.98 97.344 495.511 97.344 496.042 97.4768V108.765C495.245 108.632 494.316 108.499 493.52 108.367C492.724 108.234 491.795 108.234 490.998 108.234C489.007 108.234 487.149 108.632 485.424 109.429C483.699 110.226 482.106 111.421 480.779 112.882C479.452 114.475 478.39 116.335 477.726 118.592C476.93 120.85 476.532 123.506 476.532 126.428V151.793H464.852V98.5392Z" fill="white"/>
<path d="M81.5527 169.721H95.223L128.802 224.037H129.067V169.721H141.277V243.426H127.74L94.1613 189.243H93.8958V243.426H81.6855V169.721H81.5527Z" fill="white"/>
<path d="M164.105 219.788C164.105 221.912 164.371 223.904 165.034 225.764C165.565 227.756 166.494 229.349 167.689 230.81C168.883 232.271 170.343 233.466 172.069 234.263C173.794 235.06 176.05 235.591 178.439 235.591C181.89 235.591 184.677 234.794 186.801 233.333C188.924 231.873 190.517 229.615 191.446 226.693H202.595C201.931 229.615 200.869 232.138 199.409 234.396C197.949 236.653 196.091 238.513 193.968 240.106C191.844 241.7 189.455 242.762 186.801 243.559C184.146 244.356 181.359 244.754 178.439 244.754C174.192 244.754 170.476 244.09 167.291 242.629C164.105 241.301 161.318 239.309 159.062 236.786C156.806 234.263 155.08 231.341 154.019 227.888C152.824 224.436 152.293 220.717 152.293 216.6C152.293 212.882 152.957 209.163 154.151 205.843C155.346 202.39 157.071 199.469 159.327 196.813C161.584 194.29 164.238 192.165 167.423 190.704C170.609 189.243 174.192 188.446 178.174 188.446C182.421 188.446 186.137 189.376 189.455 191.102C192.773 192.829 195.56 195.219 197.817 198.008C200.073 200.93 201.666 204.25 202.595 207.968C203.656 211.687 203.789 215.538 203.391 219.522H164.105V219.788ZM191.579 212.085C191.446 210.226 191.048 208.499 190.384 206.773C189.721 205.046 188.792 203.586 187.73 202.258C186.535 200.93 185.208 200 183.615 199.203C182.023 198.406 180.165 198.008 178.174 198.008C176.05 198.008 174.192 198.406 172.6 199.07C170.874 199.734 169.414 200.797 168.22 202.125C167.025 203.453 166.096 204.914 165.3 206.64C164.636 208.367 164.238 210.226 164.105 212.218H191.579V212.085Z" fill="white"/>
<path d="M226.617 215.405L208.169 190.173H222.37L233.519 206.64L245.198 190.173H258.869L240.686 214.874L261.125 243.559H247.056L233.519 223.904L220.379 243.559H206.576L226.617 215.405Z" fill="white"/>
<path d="M262.319 190.04H271.212V174.104H283.024V190.04H293.642V198.805H283.024V227.224C283.024 228.42 283.024 229.482 283.157 230.412C283.289 231.341 283.555 232.005 283.82 232.669C284.218 233.333 284.749 233.732 285.546 233.997C286.342 234.263 287.271 234.396 288.598 234.396C289.395 234.396 290.191 234.396 291.12 234.396C291.916 234.396 292.713 234.263 293.642 233.997V243.028C292.314 243.161 291.12 243.294 289.793 243.426C288.598 243.559 287.271 243.692 285.944 243.692C282.891 243.692 280.369 243.426 278.511 242.762C276.653 242.098 275.193 241.301 274.132 240.239C273.07 239.044 272.406 237.716 272.008 235.989C271.61 234.263 271.344 232.271 271.344 230.146V198.672H262.452V190.04H262.319Z" fill="white"/>
<path d="M351.508 214.608L323.902 169.854H338.9L358.41 202.922L377.654 169.854H392.121L364.648 214.608V243.559H351.774V214.608H351.508Z" fill="white"/>
<path d="M397.164 219.788C397.164 221.912 397.43 223.904 398.093 225.764C398.624 227.756 399.553 229.349 400.748 230.81C401.942 232.271 403.402 233.466 405.128 234.263C406.853 235.06 409.109 235.591 411.498 235.591C414.949 235.591 417.736 234.794 419.86 233.333C421.983 231.873 423.576 229.615 424.505 226.693H435.653C434.99 229.615 433.928 232.138 432.468 234.396C431.008 236.653 429.15 238.513 427.027 240.106C424.903 241.7 422.514 242.762 419.86 243.559C417.205 244.356 414.418 244.754 411.498 244.754C407.251 244.754 403.535 244.09 400.35 242.629C397.164 241.301 394.377 239.309 392.121 236.786C389.865 234.263 388.139 231.341 387.077 227.888C385.883 224.436 385.352 220.717 385.352 216.6C385.352 212.882 386.016 209.163 387.21 205.843C388.405 202.39 390.13 199.469 392.386 196.813C394.643 194.29 397.297 192.165 400.482 190.704C403.668 189.243 407.251 188.446 411.233 188.446C415.48 188.446 419.196 189.376 422.514 191.102C425.832 192.829 428.619 195.219 430.875 198.008C433.132 200.93 434.724 204.25 435.653 207.968C436.715 211.687 436.848 215.538 436.45 219.522H397.164V219.788ZM424.638 212.085C424.505 210.226 424.107 208.499 423.443 206.773C422.779 205.046 421.85 203.586 420.789 202.258C419.594 200.93 418.267 200 416.674 199.203C415.082 198.406 413.224 198.008 411.233 198.008C409.109 198.008 407.251 198.406 405.658 199.07C403.933 199.734 402.473 200.797 401.279 202.125C400.084 203.453 399.155 204.914 398.359 206.64C397.695 208.367 397.297 210.226 397.164 212.218H424.638V212.085Z" fill="white"/>
<path d="M490.069 231.607C490.069 233.068 490.202 234.13 490.6 234.661C490.998 235.325 491.662 235.591 492.856 235.591C493.254 235.591 493.653 235.591 494.051 235.591C494.582 235.591 495.113 235.458 495.643 235.325V243.426C495.245 243.559 494.714 243.692 494.051 243.957C493.387 244.09 492.724 244.223 492.06 244.356C491.396 244.489 490.733 244.621 489.936 244.621C489.273 244.754 488.609 244.754 488.211 244.754C485.822 244.754 483.831 244.223 482.239 243.293C480.646 242.364 479.584 240.637 479.186 238.247C476.797 240.505 474.01 242.231 470.559 243.161C467.108 244.223 463.923 244.754 460.738 244.754C458.349 244.754 456.092 244.489 453.836 243.825C451.58 243.161 449.722 242.231 447.996 240.903C446.271 239.575 444.944 237.981 444.015 235.989C442.953 233.997 442.555 231.74 442.555 229.084C442.555 225.764 443.219 223.108 444.413 220.983C445.608 218.858 447.2 217.264 449.191 216.069C451.182 214.874 453.305 214.077 455.827 213.546C458.216 213.015 460.738 212.616 463.259 212.351C465.383 211.952 467.374 211.687 469.365 211.421C471.355 211.288 472.948 211.023 474.408 210.491C475.868 210.093 477.062 209.429 477.859 208.632C478.655 207.835 479.186 206.507 479.186 204.781C479.186 203.32 478.788 201.992 478.124 201.062C477.461 200.133 476.532 199.336 475.47 198.805C474.408 198.274 473.214 198.008 471.886 197.742C470.559 197.61 469.365 197.477 468.17 197.477C464.852 197.477 462.198 198.141 460.074 199.602C457.951 200.93 456.756 203.054 456.491 205.976H444.678C444.944 202.523 445.74 199.734 447.2 197.477C448.66 195.219 450.518 193.36 452.774 192.032C455.031 190.704 457.552 189.641 460.34 189.11C463.127 188.579 466.047 188.313 468.966 188.313C471.621 188.313 474.143 188.579 476.664 189.11C479.186 189.641 481.442 190.571 483.566 191.766C485.557 192.961 487.282 194.555 488.476 196.547C489.671 198.539 490.335 200.93 490.335 203.718V231.607H490.069ZM478.257 216.733C476.532 217.928 474.275 218.592 471.621 218.858C468.966 219.123 466.445 219.522 463.79 219.92C462.596 220.186 461.401 220.452 460.207 220.85C459.012 221.248 457.951 221.78 457.154 222.444C456.225 223.108 455.562 223.904 455.031 224.967C454.5 226.029 454.234 227.357 454.234 228.818C454.234 230.146 454.633 231.208 455.429 232.138C456.225 233.068 457.154 233.732 458.216 234.263C459.278 234.794 460.472 235.193 461.667 235.325C462.994 235.591 464.056 235.591 465.118 235.591C466.445 235.591 467.772 235.458 469.365 235.06C470.825 234.661 472.284 234.13 473.612 233.333C474.939 232.536 476.133 231.474 476.93 230.146C477.859 228.818 478.257 227.357 478.257 225.498V216.733Z" fill="white"/>
<path d="M502.678 190.04H513.694V200.398H513.959C514.357 198.938 515.021 197.61 515.95 196.149C516.879 194.821 518.206 193.493 519.533 192.43C520.993 191.235 522.453 190.438 524.179 189.641C525.904 188.977 527.629 188.579 529.488 188.579C530.815 188.579 531.744 188.579 532.275 188.712C532.806 188.845 533.336 188.845 533.867 188.977V200.266C533.071 200.133 532.142 200 531.346 199.867C530.549 199.734 529.62 199.734 528.824 199.734C526.833 199.734 524.975 200.133 523.25 200.93C521.524 201.726 519.932 202.922 518.604 204.382C517.277 205.976 516.215 207.835 515.552 210.093C514.755 212.351 514.357 215.007 514.357 217.928V243.293H502.545V190.04H502.678Z" fill="white"/>
<path d="M65.8916 9.56177C67.2188 9.42896 68.4133 9.03056 69.3423 8.63215C70.2714 8.10094 71.2004 7.30413 71.864 6.24171C72.5276 5.1793 73.0585 3.71847 73.324 1.72644H76.3765V43.8247H72.5276V12.6162H61.379V9.96017C63.1044 9.82737 64.5643 9.69457 65.8916 9.56177Z" fill="white"/>
<path d="M91.1086 43.8247C91.1086 41.6998 91.5068 39.8406 92.1704 38.247C92.834 36.6534 93.7631 35.1925 94.8248 33.8645C95.8866 32.5365 97.2138 31.4741 98.6738 30.4117C100.134 29.3493 101.461 28.2868 103.054 27.3572C104.514 26.4276 105.973 25.3652 107.433 24.3028C108.893 23.2404 110.221 22.1779 111.415 20.9827C112.61 19.7875 113.406 18.5923 114.069 17.3971C114.6 16.2018 114.999 14.741 114.999 13.0146C114.999 11.6866 114.733 10.4914 114.202 9.42893C113.671 8.36652 113.008 7.4369 112.211 6.77289C111.415 5.97608 110.353 5.44487 109.159 5.04646C107.964 4.64806 106.77 4.51525 105.575 4.51525C103.85 4.51525 102.39 4.78086 101.195 5.44487C100.001 6.10888 98.9392 6.90569 98.2756 7.96811C97.4793 9.03053 96.9484 10.2257 96.6829 11.6866C96.0193 13.2802 95.8866 14.741 95.8866 16.3346H92.0377C92.0377 14.2098 92.3031 12.2178 92.834 10.3585C93.3649 8.49932 94.1612 6.90569 95.3557 5.57767C96.4175 4.24965 97.8774 3.18723 99.6028 2.52322C101.328 1.72641 103.319 1.328 105.575 1.328C107.433 1.328 109.159 1.59361 110.751 2.12482C112.344 2.65602 113.671 3.32003 114.866 4.38245C116.06 5.31207 116.989 6.64009 117.653 8.10091C118.317 9.56174 118.582 11.2882 118.582 13.2802C118.582 15.0066 118.317 16.6002 117.653 18.0611C117.122 19.5219 116.326 20.8499 115.264 22.0451C114.335 23.2404 113.14 24.3028 111.946 25.3652C110.619 26.4276 109.291 27.3572 107.964 28.154C106.902 28.818 105.841 29.6149 104.381 30.4117C103.054 31.2085 101.726 32.1381 100.399 33.2005C99.0719 34.2629 98.0102 35.3253 97.0811 36.5206C96.1521 37.7158 95.4884 39.0438 95.223 40.3718H118.582V43.8247H91.1086Z" fill="white"/>
<path d="M142.604 12.749H146.453V25.8964H164.105V12.749H167.954V43.8247H164.105V29.2165H146.453V43.8247H142.604V12.749Z" fill="white"/>
<path d="M187.995 44.6215C185.606 44.6215 183.483 44.2231 181.757 43.2935C179.899 42.4967 178.439 41.3015 177.112 39.8406C175.918 38.3798 174.989 36.6534 174.325 34.6614C173.661 32.6693 173.396 30.5445 173.396 28.2869C173.396 26.0292 173.661 24.0372 174.325 21.9124C174.989 19.9203 175.918 18.1939 177.112 16.7331C178.307 15.2723 179.899 14.077 181.757 13.1474C183.615 12.2178 185.606 11.8194 187.995 11.8194C190.384 11.8194 192.508 12.2178 194.233 13.1474C196.091 14.077 197.551 15.2723 198.878 16.7331C200.073 18.1939 201.002 19.9203 201.666 21.9124C202.329 23.9044 202.595 26.0292 202.595 28.2869C202.595 30.5445 202.329 32.6693 201.666 34.6614C201.002 36.6534 200.073 38.3798 198.878 39.8406C197.684 41.3015 196.091 42.4967 194.233 43.2935C192.508 44.2231 190.384 44.6215 187.995 44.6215ZM187.995 41.4343C189.853 41.4343 191.313 41.0359 192.773 40.2391C194.1 39.4422 195.295 38.5126 196.224 37.1846C197.153 35.9894 197.817 34.5286 198.215 32.9349C198.613 31.3413 198.878 29.7477 198.878 28.1541C198.878 26.5604 198.613 24.9668 198.215 23.3732C197.817 21.7796 197.02 20.4515 196.224 19.1235C195.295 17.9283 194.233 16.8659 192.773 16.0691C191.446 15.2723 189.853 14.8738 187.995 14.8738C186.137 14.8738 184.677 15.2723 183.217 16.0691C181.89 16.8659 180.696 17.7955 179.767 19.1235C178.837 20.3187 178.174 21.7796 177.776 23.3732C177.378 24.9668 177.112 26.5604 177.112 28.1541C177.112 29.7477 177.378 31.3413 177.776 32.9349C178.174 34.5286 178.97 35.8566 179.767 37.1846C180.696 38.3798 181.757 39.4422 183.217 40.2391C184.677 41.0359 186.27 41.4343 187.995 41.4343Z" fill="white"/>
<path d="M216.132 31.2085C213.345 30.9429 211.221 30.1461 209.496 28.4197C207.903 26.8261 207.107 24.7012 207.107 21.9124C207.107 20.5844 207.373 19.2563 207.771 18.1939C208.169 16.9987 208.832 16.0691 209.629 15.2723C210.425 14.4755 211.354 13.8114 212.549 13.413C213.743 13.0146 215.07 12.749 216.398 12.749H231.395V43.8247H227.546V31.4741H220.247L209.629 43.8247H204.718L216.132 31.2085ZM227.812 28.2869V15.9363H217.459C215.336 15.9363 213.743 16.4675 212.681 17.6627C211.62 18.8579 210.956 20.3187 210.956 22.0452C210.956 23.9044 211.487 25.3652 212.681 26.4276C213.743 27.6229 215.469 28.1541 217.459 28.1541H227.812V28.2869Z" fill="white"/>
<path d="M252.1 44.6215C249.313 44.6215 246.924 44.0903 245.065 43.0279C243.207 41.9655 241.747 40.6375 240.686 38.911C239.624 37.1846 238.828 35.1926 238.429 32.9349C238.031 30.6773 237.766 28.4197 237.766 26.0292C237.766 24.5684 237.766 22.9748 237.898 21.3811C238.031 19.7875 238.164 18.1939 238.562 16.6003C238.828 15.0066 239.226 13.5458 239.757 12.085C240.287 10.6242 240.818 9.29615 241.615 8.23373C243.075 6.1089 244.667 4.51527 246.658 3.58566C248.649 2.65604 251.038 2.12483 254.091 1.85923L257.01 1.72643C258.603 1.59363 259.665 1.46082 260.196 1.19522C260.727 0.929615 261.125 0.531209 261.39 0H265.637C265.372 1.85923 264.443 3.05445 263.248 3.71846C261.921 4.38247 259.93 4.78088 257.276 4.91368L252.631 5.31209C249.047 5.57769 246.393 6.77291 244.535 9.16335C242.676 11.421 241.482 15.0066 240.686 19.7875H240.818C241.88 17.6627 243.34 16.0691 245.464 14.741C247.454 13.413 249.843 12.8818 252.365 12.8818C254.489 12.8818 256.347 13.2802 258.072 13.9442C259.798 14.6082 261.258 15.6707 262.452 17.1315C263.646 18.4595 264.708 20.1859 265.372 22.178C266.035 24.17 266.434 26.2948 266.434 28.8181C266.434 31.2085 266.035 33.4661 265.372 35.4582C264.708 37.4502 263.779 39.1766 262.452 40.5047C261.125 41.9655 259.665 43.0279 257.939 43.6919C256.214 44.2231 254.223 44.6215 252.1 44.6215ZM252.1 41.4343C253.56 41.4343 255.02 41.1687 256.347 40.5047C257.674 39.8406 258.736 39.0438 259.665 37.8486C260.594 36.6534 261.39 35.3254 261.921 33.7317C262.452 32.1381 262.717 30.4117 262.717 28.5525C262.717 26.6932 262.452 24.9668 261.921 23.3732C261.39 21.7795 260.727 20.4515 259.665 19.3891C258.736 18.3267 257.674 17.3971 256.347 16.8659C255.02 16.2019 253.692 15.9363 252.232 15.9363C250.64 15.9363 249.18 16.2019 247.853 16.8659C246.525 17.5299 245.464 18.3267 244.402 19.3891C243.473 20.4515 242.676 21.7795 242.146 23.3732C241.615 24.9668 241.349 26.6932 241.349 28.5525C241.349 30.4117 241.615 32.2709 242.146 33.7317C242.676 35.3254 243.34 36.6534 244.402 37.8486C245.331 39.0438 246.525 39.8406 247.72 40.5047C249.18 41.1687 250.507 41.4343 252.1 41.4343Z" fill="white"/>
<path d="M272.141 12.749H275.591V18.5923H275.724C276.653 16.4675 277.98 14.741 279.971 13.5458C281.962 12.3506 284.218 11.8194 286.74 11.8194C289.129 11.8194 291.12 12.2178 292.845 13.1474C294.571 14.077 296.03 15.2723 297.225 16.7331C298.419 18.1939 299.216 19.9203 299.747 21.9124C300.278 23.9044 300.543 26.0292 300.543 28.1541C300.543 30.4117 300.278 32.5365 299.747 34.5286C299.216 36.5206 298.287 38.247 297.225 39.7078C296.03 41.1687 294.571 42.3639 292.845 43.2935C291.12 44.0903 288.996 44.6215 286.74 44.6215C285.546 44.6215 284.484 44.4887 283.289 44.2231C282.227 43.9575 281.166 43.5591 280.237 42.8951C279.308 42.3639 278.379 41.5671 277.715 40.7703C276.919 39.9734 276.388 38.911 275.99 37.8486H275.857V55.1129H272.008V12.749H272.141ZM286.74 41.4343C288.598 41.4343 290.058 41.0359 291.385 40.239C292.712 39.4422 293.774 38.5126 294.571 37.1846C295.367 35.9894 296.03 34.5286 296.429 32.9349C296.827 31.3413 296.96 29.7477 296.96 28.1541C296.96 26.5604 296.827 24.9668 296.429 23.3732C296.03 21.7796 295.5 20.3187 294.571 19.1235C293.774 17.9283 292.712 16.8659 291.385 16.0691C290.058 15.2723 288.598 14.8738 286.74 14.8738C284.616 14.8738 282.891 15.2723 281.431 15.9363C280.104 16.6003 278.909 17.6627 278.113 18.8579C277.317 20.0531 276.653 21.514 276.388 23.1076C275.99 24.7012 275.857 26.4276 275.857 28.1541C275.857 29.7477 275.99 31.3413 276.388 32.9349C276.786 34.5286 277.45 35.8566 278.246 37.1846C279.042 38.3798 280.237 39.4422 281.564 40.239C283.024 41.0359 284.749 41.4343 286.74 41.4343Z" fill="white"/>
<path d="M314.479 31.2085C311.692 30.9429 309.568 30.1461 307.843 28.4197C306.25 26.8261 305.454 24.7012 305.454 21.9124C305.454 20.5844 305.719 19.2563 306.117 18.1939C306.515 16.9987 307.179 16.0691 307.975 15.2723C308.772 14.4755 309.701 13.8114 310.895 13.413C312.09 13.0146 313.417 12.749 314.744 12.749H329.742V43.8247H325.893V31.4741H318.593L307.975 43.8247H303.065L314.479 31.2085ZM326.025 28.2869V15.9363H315.673C313.55 15.9363 311.957 16.4675 310.895 17.6627C309.833 18.8579 309.17 20.3187 309.17 22.0452C309.17 23.9044 309.701 25.3652 310.895 26.4276C311.957 27.6229 313.682 28.1541 315.673 28.1541H326.025V28.2869Z" fill="white"/>
<path d="M-1 243.426V239.841H12.2721L-1 226.029V221.381L11.2104 234.396L26.3406 220.983V225.631L13.4666 237.317L16.1211 240.106H26.4733V243.692H-1V243.426Z" fill="#FFB32C"/>
<path d="M26.7388 209.96C26.7388 211.554 26.4733 212.882 25.9424 214.077C25.4115 215.272 24.7479 216.202 23.8189 217.131C22.8898 217.928 21.8281 218.592 20.5008 218.991C19.3064 219.389 17.8464 219.655 16.3865 219.655C14.9265 219.655 13.5993 219.389 12.2721 218.991C10.9449 218.592 9.88313 217.928 8.95408 217.131C8.02503 216.335 7.2287 215.272 6.69782 214.077C6.16693 212.882 5.90149 211.554 5.90149 209.96C5.90149 208.367 6.16693 207.039 6.69782 205.843C7.2287 204.648 8.02503 203.586 8.95408 202.789C9.88313 201.992 10.9449 201.328 12.2721 200.93C13.5993 200.531 14.9265 200.266 16.3865 200.266C17.8464 200.266 19.1736 200.531 20.5008 200.93C21.6953 201.328 22.8898 201.992 23.8189 202.789C24.7479 203.586 25.4115 204.648 25.9424 205.843C26.4733 207.039 26.7388 208.367 26.7388 209.96ZM23.9516 209.96C23.9516 209.163 23.8189 208.367 23.4207 207.57C23.1553 206.773 22.6244 206.109 21.9608 205.578C21.2972 205.047 20.5008 204.515 19.5718 204.25C18.6427 203.984 17.581 203.718 16.3865 203.718C15.192 203.718 14.1302 203.851 13.2012 204.25C12.2721 204.515 11.4758 205.047 10.8122 205.578C10.1486 206.109 9.75041 206.773 9.35225 207.57C9.0868 208.367 8.82136 209.163 8.82136 209.96C8.82136 210.757 8.95408 211.554 9.35225 212.351C9.61769 213.147 10.1486 213.811 10.8122 214.343C11.4758 214.874 12.2721 215.405 13.2012 215.671C14.1302 215.936 15.192 216.202 16.3865 216.202C17.581 216.202 18.6427 216.069 19.5718 215.671C20.5008 215.405 21.2972 214.874 21.9608 214.343C22.6244 213.811 23.0226 213.147 23.4207 212.351C23.6862 211.554 23.9516 210.757 23.9516 209.96Z" fill="#FFB32C"/>
<path d="M6.56506 196.547V193.36H14.3956V183.267H6.56506V180.08H26.3406V183.267H17.1828V193.36H26.3406V196.547H6.56506Z" fill="#FFB32C"/>
<path d="M24.8807 163.745C25.1461 164.011 25.2788 164.276 25.5443 164.542C25.8097 164.807 25.9424 165.206 26.2079 165.604C26.3406 166.003 26.4733 166.401 26.6061 166.799C26.7388 167.198 26.7388 167.596 26.7388 167.995C26.7388 169.456 26.4733 170.784 25.8097 171.713C25.2788 172.776 24.4825 173.572 23.4207 174.104C22.4917 174.768 21.2972 175.166 19.97 175.432C18.6428 175.697 17.3156 175.83 15.9883 175.83C12.803 175.83 10.414 175.166 8.55594 173.705C6.83056 172.377 5.90151 170.385 5.90151 168.127C5.90151 167.729 5.90151 167.331 6.03423 166.799C6.16696 166.401 6.29968 165.87 6.56512 165.471C6.83056 165.073 6.96328 164.675 7.22873 164.409C7.49417 164.011 7.75961 163.745 8.02506 163.612H-1V160.425H8.15778C7.89233 160.159 7.62689 159.894 7.36145 159.628C7.09601 159.363 6.83056 158.964 6.69784 158.566C6.4324 158.167 6.29968 157.769 6.16696 157.238C6.03423 156.839 6.03423 156.308 6.03423 155.91C6.03423 153.519 6.96328 151.66 8.68866 150.332C10.414 149.004 12.9357 148.207 16.1211 148.207C17.4483 148.207 18.7755 148.34 20.1027 148.606C21.4299 148.871 22.4917 149.402 23.5535 149.934C24.4825 150.598 25.2788 151.394 25.9424 152.324C26.4733 153.386 26.8715 154.582 26.8715 156.042C26.8715 156.839 26.7388 157.503 26.3406 158.433C25.9424 159.23 25.5443 159.894 25.0134 160.292H34.0384V163.479H24.8807V163.745ZM24.0843 167.596C24.0843 166.667 23.8189 165.737 23.288 165.073C22.7571 164.409 22.2262 163.878 21.4299 163.745H11.6085C11.0776 163.878 10.6795 164.143 10.2813 164.409C9.88315 164.675 9.61771 165.073 9.48499 165.471C9.21955 165.87 9.08683 166.268 9.08683 166.667C8.9541 167.065 8.95411 167.463 8.95411 167.862C8.95411 168.659 9.08683 169.456 9.48499 169.987C9.88315 170.651 10.414 171.049 11.0776 171.448C11.7413 171.846 12.5376 172.112 13.4666 172.244C14.3957 172.377 15.3247 172.51 16.3865 172.51C17.3156 172.51 18.2446 172.377 19.1737 172.244C20.1027 172.112 20.899 171.846 21.6954 171.448C22.4917 171.049 23.0226 170.518 23.5535 169.987C23.8189 169.456 24.0843 168.659 24.0843 167.596ZM24.0843 156.706C24.0843 155.777 23.8189 154.847 23.4207 154.316C22.8899 153.652 22.359 153.121 21.5626 152.855C20.7663 152.457 19.97 152.191 19.0409 152.058C18.1119 151.926 17.1828 151.793 16.2538 151.793C15.192 151.793 14.1302 151.926 13.3339 152.058C12.4049 152.191 11.6085 152.59 10.9449 152.855C10.2813 153.254 9.75043 153.785 9.35227 154.316C8.95411 154.98 8.82138 155.644 8.82138 156.441C8.82138 156.839 8.82138 157.238 8.95411 157.636C9.08683 158.035 9.21955 158.433 9.35227 158.831C9.61771 159.23 9.88315 159.495 10.1486 159.894C10.414 160.292 10.9449 160.425 11.4758 160.558H21.4299C22.0935 160.425 22.7571 160.027 23.288 159.23C23.8189 158.566 24.0843 157.769 24.0843 156.706Z" fill="#FFB32C"/>
<path d="M26.7387 135.989C26.7387 137.583 26.4733 138.911 25.9424 140.106C25.4115 141.301 24.7479 142.231 23.8188 143.028C22.8898 143.825 21.828 144.356 20.5008 144.754C19.1736 145.153 17.8464 145.286 16.3864 145.286C14.9265 145.286 13.5993 145.02 12.2721 144.622C10.9449 144.223 9.8831 143.559 8.95405 142.63C8.025 141.833 7.36139 140.77 6.83051 139.708C6.29962 138.513 6.03418 137.317 6.03418 135.989C6.03418 134.263 6.43234 132.802 7.09595 131.607C7.75956 130.412 8.68861 129.482 9.8831 128.818C10.9449 128.154 12.2721 127.623 13.5993 127.357C14.9265 127.092 16.2537 126.959 17.4482 127.092V142.098C18.3773 142.098 19.1736 141.965 19.9699 141.833C20.7663 141.567 21.4299 141.169 22.0935 140.77C22.7571 140.239 23.1552 139.575 23.5534 138.778C23.9516 137.981 24.0843 137.052 24.0843 135.989C24.0843 134.661 23.8188 133.466 23.1552 132.537C22.4916 131.607 21.5626 131.076 20.2354 130.81V127.623C22.4916 128.021 24.217 128.951 25.2788 130.545C26.2078 131.873 26.7387 133.732 26.7387 135.989ZM14.5283 130.677C13.732 130.677 13.0684 130.943 12.4048 131.209C11.7412 131.474 11.0776 131.873 10.6794 132.404C10.1485 132.935 9.75038 133.466 9.48494 134.13C9.21949 134.794 9.08677 135.591 9.08677 136.388C9.08677 137.185 9.21949 137.981 9.48494 138.645C9.75038 139.309 10.1485 139.841 10.6794 140.372C11.2103 140.903 11.7412 141.301 12.4048 141.567C13.0684 141.833 13.8647 141.965 14.5283 142.098V130.677Z" fill="#FFB32C"/>
<path d="M6.56506 123.772V120.584H9.21949V120.452C8.15772 119.92 7.36139 119.124 6.83051 117.928C6.29962 116.733 6.03418 115.538 6.03418 114.077C6.03418 112.483 6.29962 111.155 6.83051 110.093C7.36139 108.898 8.15772 107.968 9.08677 107.304C10.0158 106.507 11.2103 105.976 12.4048 105.578C13.5993 105.179 14.9265 105.047 16.3864 105.047C17.8464 105.047 19.1736 105.179 20.3681 105.578C21.5626 105.976 22.6244 106.507 23.5534 107.304C24.4825 108.101 25.2788 109.031 25.8097 110.093C26.3406 111.288 26.606 112.483 26.606 114.077C26.606 114.608 26.606 115.139 26.4733 115.671C26.3406 116.202 26.2078 116.866 25.9424 117.397C25.6769 117.928 25.4115 118.592 25.0133 119.124C24.6152 119.655 24.0843 120.053 23.5534 120.452V120.584H33.773V123.772H6.56506ZM23.9516 114.343C23.9516 113.28 23.6861 112.351 23.288 111.554C22.8898 110.757 22.2262 110.226 21.5626 109.695C20.899 109.296 19.9699 108.898 19.1736 108.765C18.2445 108.499 17.3155 108.499 16.3864 108.499C15.4574 108.499 14.5283 108.632 13.732 108.898C12.803 109.163 12.0066 109.562 11.343 109.96C10.6794 110.491 10.1485 111.155 9.75038 111.819C9.35221 112.616 9.08677 113.546 9.08677 114.608C9.08677 115.671 9.35221 116.6 9.75038 117.397C10.1485 118.194 10.8121 118.725 11.4758 119.256C12.1394 119.788 12.9357 120.053 13.8647 120.319C14.7938 120.584 15.7228 120.584 16.5192 120.584C17.4482 120.584 18.3773 120.452 19.3063 120.186C20.2354 119.92 21.0317 119.655 21.6953 119.124C22.3589 118.592 22.8898 117.928 23.4207 117.132C23.6861 116.467 23.9516 115.538 23.9516 114.343Z" fill="#FFB32C"/>
<path d="M26.7387 92.8287C26.7387 94.4223 26.4733 95.7503 25.9424 96.9456C25.4115 98.1408 24.7479 99.0704 23.8188 99.8672C22.8898 100.664 21.828 101.195 20.5008 101.594C19.1736 101.992 17.8464 102.125 16.3864 102.125C14.9265 102.125 13.5993 101.859 12.2721 101.461C10.9449 101.062 9.8831 100.398 8.95405 99.4688C8.025 98.672 7.36139 97.6096 6.83051 96.5472C6.29962 95.6175 6.03418 94.2895 6.03418 92.9615C6.03418 91.2351 6.43234 89.7742 7.09595 88.579C7.75956 87.3838 8.68861 86.4542 9.8831 85.7902C10.9449 85.1262 12.2721 84.595 13.5993 84.3294C14.9265 84.0638 16.2537 83.931 17.4482 84.0638V98.9376C18.3773 98.9376 19.1736 98.8048 19.9699 98.672C20.7663 98.4064 21.4299 98.008 22.0935 97.6096C22.7571 97.0784 23.1552 96.4144 23.5534 95.6175C23.9516 94.8207 24.0843 93.8911 24.0843 92.8287C24.0843 91.5007 23.8188 90.3055 23.1552 89.3758C22.4916 88.4462 21.5626 87.915 20.2354 87.6494V84.4622C22.4916 84.8606 24.217 85.7902 25.2788 87.3838C26.2078 88.7118 26.7387 90.5711 26.7387 92.8287ZM14.5283 87.3838C13.732 87.3838 13.0684 87.6494 12.4048 87.915C11.7412 88.1806 11.0776 88.579 10.6794 89.1102C10.1485 89.6414 9.75038 90.1727 9.48494 90.8367C9.21949 91.5007 9.08677 92.2975 9.08677 93.0943C9.08677 93.8911 9.21949 94.6879 9.48494 95.3519C9.75038 96.016 10.1485 96.5472 10.6794 97.0784C11.2103 97.6096 11.7412 98.008 12.4048 98.2736C13.0684 98.5392 13.8647 98.672 14.5283 98.8048V87.3838Z" fill="#FFB32C"/>
<path d="M6.56506 80.6109V77.4236H14.3956V67.3307H6.56506V64.1434H26.3406V67.3307H17.1828V77.4236H26.3406V80.6109H6.56506Z" fill="#FFB32C"/>
<path d="M26.3406 43.8247V59.2298H6.56506V56.0425H23.4207V46.7464H6.56506V43.5591H23.4207V40.9031H32.313V43.8247H26.3406Z" fill="#FFB32C"/>
<path d="M6.56506 37.583V34.3958H22.7571L6.56506 25.0997V20.9828H26.3406V24.17H10.1485L26.3406 33.4662V37.583H6.56506Z" fill="#FFB32C"/>
<path d="M18.6428 11.8194C18.3774 13.2802 17.8465 14.3427 16.7847 15.2723C15.7229 16.2019 14.3957 16.6003 12.6703 16.6003C10.8122 16.6003 9.3523 16.0691 8.29053 14.8739C7.22876 13.8114 6.69788 12.2178 6.69788 10.3586V0.265625H26.4734V3.45288H18.9082V7.96815L26.4734 14.077V18.4595L18.6428 11.8194ZM15.8557 3.58568H9.3523V9.29617C9.3523 10.6242 9.61775 11.6866 10.2814 12.2178C10.8122 12.8818 11.6086 13.1474 12.6703 13.1474C13.7321 13.1474 14.5284 12.8818 15.0593 12.2178C15.5902 11.5538 15.8557 10.6242 15.8557 9.29617V3.58568Z" fill="#FFB32C"/>
<path d="M98.8722 285.126C98.8722 287.384 98.0759 288.446 96.3505 288.446C94.6251 288.446 93.8288 287.384 93.8288 285.126V278.884H91.5725V285.392C91.5725 288.712 93.2979 290.571 96.3505 290.571C99.4031 290.571 101.128 288.712 101.128 285.392V278.884H98.8722V285.126Z" fill="white"/>
<path d="M111.746 284.462C111.746 287.251 110.021 288.446 108.163 288.446C105.906 288.446 104.712 286.454 104.712 284.462C104.712 281.806 106.437 280.478 108.163 280.478C110.286 280.478 111.746 282.205 111.746 284.462ZM108.694 278.486C107.101 278.486 105.774 279.283 104.845 280.611V278.884H102.588V295.352H104.845V288.712C105.774 290.04 107.101 290.704 108.561 290.704C110.154 290.704 111.613 290.04 112.542 288.845C113.472 287.782 114.002 286.189 114.002 284.595C114.002 283.001 113.472 281.541 112.542 280.478C111.613 279.15 110.154 278.486 108.694 278.486Z" fill="white"/>
<path d="M80.0257 279.017C79.3621 278.619 78.8312 278.486 78.1676 278.486C76.8404 278.486 75.6459 279.283 75.115 280.478V278.752H72.8588V290.173H75.115V284.595C75.115 282.736 75.3805 280.744 77.6367 280.744C78.0349 280.744 78.3003 280.744 78.5658 280.877L80.0257 279.017Z" fill="white"/>
<path d="M69.2753 278.752V280.611C68.3463 279.283 67.0191 278.486 65.4264 278.486C63.8338 278.486 62.5065 279.15 61.5775 280.345C60.6484 281.408 60.1176 282.869 60.1176 284.462C60.1176 286.056 60.6484 287.649 61.5775 288.712C62.5065 289.907 63.9665 290.571 65.5591 290.571C67.0191 290.571 68.3463 289.774 69.2753 288.579V290.305C69.2753 292.298 68.8772 294.29 66.09 294.29C64.0992 294.29 62.772 293.094 62.772 291.235V291.102H60.6484V291.235C60.6484 294.29 62.9047 296.414 66.09 296.414C71.0007 296.414 71.6643 292.829 71.6643 289.641V278.884H69.2753V278.752ZM65.8246 288.446C63.5683 288.446 62.3738 286.454 62.3738 284.462C62.3738 281.806 64.0992 280.478 65.8246 280.478C67.9481 280.478 69.4081 282.072 69.4081 284.462C69.2753 287.251 67.55 288.446 65.8246 288.446Z" fill="white"/>
<path d="M134.707 283.4C133.645 283.798 132.583 284.064 131.787 284.064C131.124 284.064 130.725 283.931 130.46 283.533C130.194 283.134 130.194 282.603 130.327 281.806L130.991 278.884C131.256 277.424 131.124 276.361 130.593 275.697C130.062 275.033 129.265 274.768 128.204 274.768C127.009 274.768 125.947 275.166 124.886 276.096C124.487 275.299 123.558 274.768 122.364 274.768C121.302 274.768 120.373 275.166 119.444 275.83C119.046 275.166 117.984 274.635 116.79 274.635C116.259 274.635 115.595 274.768 115.064 274.9H114.931L114.533 277.025L115.064 276.76C115.861 276.494 116.524 276.494 116.79 276.76C117.055 277.025 117.055 277.424 116.922 277.955L115.462 284.197H117.984L119.046 279.814C119.577 277.689 120.506 276.627 121.833 276.627C122.231 276.627 122.497 276.76 122.629 277.025C122.895 277.291 122.895 277.822 122.762 278.619L121.435 284.197H123.957L125.151 279.017C125.416 277.689 126.611 276.627 127.805 276.627C128.204 276.627 128.469 276.76 128.602 277.025C128.867 277.291 128.867 277.822 128.735 278.619L128.071 281.806C127.805 283.134 127.938 284.197 128.602 284.861C129.265 285.657 130.327 286.056 131.654 286.056C132.716 286.056 133.911 285.79 135.105 285.259L135.238 285.126L135.769 282.736L134.707 283.4Z" fill="white"/>
<path d="M90.2454 282.072C89.9799 281.275 89.5818 280.744 89.0509 280.213C88.52 279.681 87.9891 279.283 87.1928 279.017C86.5292 278.752 85.6001 278.619 84.6711 278.619C83.742 278.619 82.9457 278.752 82.1494 279.017C81.4858 279.283 80.8221 279.681 80.2913 280.213C79.7604 280.744 79.3622 281.408 79.0968 282.072C78.8313 282.869 78.6986 283.665 78.6986 284.462C78.6986 285.392 78.8313 286.189 79.0968 286.985C79.3622 287.782 79.7604 288.313 80.2913 288.845C80.8221 289.376 81.353 289.774 82.1494 290.04C82.813 290.305 83.742 290.438 84.6711 290.438C85.6001 290.438 86.3964 290.305 87.1928 290.04C87.8564 289.774 88.52 289.376 89.0509 288.845C89.5818 288.313 89.9799 287.649 90.2454 286.985C90.5108 286.189 90.6435 285.392 90.6435 284.462C90.6435 283.665 90.5108 282.736 90.2454 282.072ZM86.3964 288.313C85.9983 288.579 85.4674 288.712 84.8038 288.712C84.2729 288.712 83.742 288.579 83.2111 288.313C82.813 288.048 82.4148 287.782 82.1494 287.384C81.8839 286.985 81.6185 286.587 81.4858 286.056C81.353 285.525 81.353 284.993 81.353 284.462C81.353 283.931 81.353 283.4 81.4858 283.001C81.6185 282.47 81.8839 282.072 82.1494 281.673C82.4148 281.275 82.813 281.009 83.2111 280.744C83.6093 280.478 84.1402 280.345 84.8038 280.345C85.3347 280.345 85.8656 280.478 86.3964 280.744C86.7946 281.009 87.1928 281.275 87.4582 281.673C87.7237 282.072 87.9891 282.47 88.1218 283.001C88.2545 283.533 88.2545 284.064 88.2545 284.462C88.2545 284.993 88.2545 285.525 88.1218 286.056C87.9891 286.587 87.7237 286.985 87.4582 287.384C87.1928 287.782 86.7946 288.181 86.3964 288.313Z" fill="white"/>
<path d="M444.346 297.211C444.213 297.211 443.948 297.078 443.682 296.68L443.019 294.821H438.905L438.241 296.68C438.108 297.078 437.843 297.211 437.577 297.211C437.312 297.211 436.914 296.946 436.914 296.547C436.914 296.414 436.914 296.282 437.046 296.149L440.232 288.181C440.497 287.517 440.763 287.517 441.028 287.517C441.293 287.517 441.559 287.649 441.824 288.181L445.01 296.149C445.142 296.282 445.142 296.414 445.142 296.547C445.01 296.946 444.612 297.211 444.346 297.211ZM442.488 293.493L440.895 289.243L439.303 293.493H442.488ZM452.044 288.579C452.177 288.446 452.177 288.181 452.177 288.181C452.177 287.782 451.911 287.517 451.513 287.517C451.248 287.517 450.982 287.649 450.849 288.048L448.062 295.352L445.275 288.048C445.142 287.649 444.877 287.517 444.612 287.517C444.213 287.517 443.948 287.782 443.948 288.181C443.948 288.313 443.948 288.446 444.081 288.579L447.133 296.414C447.399 297.078 447.797 297.211 448.062 297.211C448.328 297.211 448.726 297.078 448.991 296.414L452.044 288.579ZM458.547 292.696C459.078 292.696 459.211 292.297 459.211 292.165C459.211 292.032 459.078 291.633 458.547 291.633H454.566V288.845H458.813C459.344 288.845 459.476 288.446 459.476 288.313C459.476 288.181 459.344 287.782 458.813 287.782H454.035C453.504 287.782 453.238 288.048 453.238 288.579V296.547C453.238 297.078 453.504 297.344 454.035 297.344H458.945C459.476 297.344 459.609 296.946 459.609 296.813C459.609 296.68 459.476 296.282 458.945 296.282H454.566V293.094H458.547V292.696ZM479.65 297.211C479.517 297.211 479.252 297.078 478.986 296.68L478.323 294.821H474.208L473.545 296.68C473.412 297.078 473.147 297.211 472.881 297.211C472.616 297.211 472.218 296.946 472.218 296.547C472.218 296.414 472.218 296.282 472.35 296.149L475.536 288.181C475.801 287.517 476.067 287.517 476.332 287.517C476.597 287.517 476.863 287.649 477.128 288.181L480.314 296.149C480.446 296.282 480.446 296.414 480.446 296.547C480.314 296.946 480.048 297.211 479.65 297.211ZM477.925 293.493L476.332 289.243L474.739 293.493H477.925ZM470.492 297.211C470.758 297.211 471.156 297.078 471.156 296.414V288.313C471.156 287.517 470.625 287.384 470.36 287.384C470.094 287.384 469.696 287.517 469.43 288.181L466.245 295.352L463.06 288.181C462.794 287.517 462.396 287.384 462.131 287.384C461.865 287.384 461.334 287.517 461.334 288.313V296.414C461.334 297.078 461.733 297.078 461.998 297.078C462.263 297.078 462.662 296.946 462.662 296.414V290.305L465.449 296.547C465.714 297.078 465.98 297.211 466.245 297.211C466.511 297.211 466.776 297.078 467.041 296.547L469.829 290.173V296.414C469.829 297.078 470.227 297.211 470.492 297.211ZM488.675 296.547C488.675 296.414 488.675 296.149 488.41 296.016L484.295 292.032L488.144 288.712C488.41 288.446 488.41 288.313 488.41 288.181C488.41 287.782 488.144 287.649 487.746 287.649C487.613 287.649 487.348 287.782 487.215 287.915L482.835 291.899V288.181C482.835 287.517 482.437 287.384 482.172 287.384C481.906 287.384 481.508 287.517 481.508 288.181V296.414C481.508 297.078 481.906 297.211 482.172 297.211C482.437 297.211 482.835 297.078 482.835 296.414V292.165L487.481 296.946C487.613 297.211 487.879 297.211 488.011 297.211C488.41 297.211 488.675 296.813 488.675 296.547ZM495.311 292.696C495.842 292.696 495.975 292.297 495.975 292.165C495.975 292.032 495.842 291.633 495.311 291.633H491.329V288.845H495.577C496.107 288.845 496.24 288.446 496.24 288.313C496.24 288.181 496.107 287.782 495.577 287.782H490.799C490.268 287.782 490.002 288.048 490.002 288.579V296.547C490.002 297.078 490.268 297.344 490.799 297.344H495.709C496.24 297.344 496.373 296.946 496.373 296.813C496.373 296.68 496.24 296.282 495.709 296.282H491.329V293.094H495.311V292.696ZM500.62 292.829H499.16V296.414C499.16 297.078 498.762 297.211 498.496 297.211C498.231 297.211 497.833 297.078 497.833 296.414V288.313C497.833 287.782 498.098 287.517 498.629 287.517H500.885C502.744 287.517 504.203 288.181 504.203 290.173C504.203 291.501 503.274 292.43 501.947 292.696L504.203 296.016C504.336 296.149 504.336 296.414 504.336 296.414C504.336 296.813 504.071 297.078 503.673 297.078C503.54 297.078 503.274 296.946 503.142 296.68L500.62 292.829ZM499.16 291.633H500.753C501.947 291.633 503.009 291.235 503.009 290.04C503.009 288.845 502.08 288.579 500.885 288.579H499.293V291.633H499.16ZM437.445 287.517C437.046 287.384 436.648 287.517 436.516 287.915L433.861 295.086L432.003 287.915C431.87 287.649 431.605 287.384 431.339 287.384C431.074 287.384 430.809 287.517 430.676 287.915L428.818 295.086L426.163 287.915C426.031 287.517 425.632 287.384 425.234 287.517C424.836 287.649 424.703 288.048 424.836 288.446L427.889 296.547C428.021 296.813 428.154 296.946 428.42 297.078C428.95 297.211 429.481 297.078 429.614 296.547V296.414L431.207 290.173L432.799 296.414V296.547C432.932 297.078 433.596 297.344 433.994 297.078C434.259 296.946 434.392 296.813 434.525 296.547L437.577 288.446C437.975 288.048 437.843 287.649 437.445 287.517Z" fill="white"/>
<path d="M477.792 282.603C477.659 282.603 477.526 282.603 477.394 282.603C476.863 282.603 476.332 282.205 476.199 281.674L474.341 275.83L472.483 281.674C472.35 282.205 471.819 281.674 471.288 281.674C470.758 281.674 470.227 282.205 470.094 281.674L468.236 275.83L466.378 281.674C466.245 282.205 465.714 282.603 465.183 282.603C465.051 282.603 464.918 282.603 464.785 282.603C464.121 282.338 463.723 281.674 463.989 281.01L467.041 271.581C467.174 271.05 467.705 271.581 468.236 271.581C468.767 271.581 469.298 271.05 469.43 271.581L471.288 277.424L473.147 271.581C473.279 271.05 473.81 271.581 474.341 271.581C474.872 271.581 475.403 271.05 475.536 271.581L478.588 281.01C478.854 281.674 478.455 282.338 477.792 282.603ZM464.387 270.784C464.254 270.784 464.121 270.784 463.989 270.784C463.458 270.784 462.927 271.182 462.794 271.714L460.936 277.557L459.078 271.714C458.945 271.182 458.414 271.714 457.884 271.714C457.353 271.714 456.822 271.182 456.689 271.714L454.831 277.557L452.973 271.714C452.84 271.182 452.309 270.784 451.778 270.784C451.646 270.784 451.513 270.784 451.38 270.784C450.717 271.05 450.318 271.714 450.584 272.378L453.636 281.807C453.769 282.338 454.3 281.807 454.831 281.807C455.362 281.807 455.893 282.338 456.025 281.807L457.884 275.963L459.742 281.807C459.874 282.338 460.405 281.807 460.936 281.807C461.467 281.807 461.998 282.338 462.131 281.807L465.183 272.378C465.449 271.714 465.051 270.917 464.387 270.784Z" fill="white"/>
<path d="M474.341 270.651C474.872 270.651 475.403 271.049 475.535 271.58C475.668 271.846 475.668 272.112 475.535 272.377L474.341 275.963L473.146 272.377C473.014 272.112 473.014 271.846 473.146 271.58C473.279 271.049 473.81 270.651 474.341 270.651ZM466.909 271.58C466.776 271.846 466.776 272.112 466.909 272.377L468.103 275.963L469.298 272.377C469.43 272.112 469.43 271.846 469.298 271.58C469.165 271.049 468.634 270.651 468.103 270.651C467.572 270.651 467.041 271.049 466.909 271.58ZM460.936 282.603C461.467 282.603 461.998 282.205 462.131 281.673C462.263 281.408 462.263 281.142 462.131 280.877L460.936 277.291L459.742 280.877C459.609 281.142 459.609 281.408 459.742 281.673C459.874 282.205 460.405 282.603 460.936 282.603ZM454.698 282.603C455.229 282.603 455.76 282.205 455.893 281.673C456.025 281.408 456.025 281.142 455.893 280.877L454.698 277.291L453.504 280.877C453.371 281.142 453.371 281.408 453.504 281.673C453.769 282.205 454.167 282.603 454.698 282.603Z" fill="white"/>
<path d="M457.884 270.651C458.415 270.651 458.945 271.049 459.078 271.58C459.211 271.846 459.211 272.112 459.078 272.377L457.884 275.963L456.689 272.377C456.556 272.112 456.556 271.846 456.689 271.58C456.822 271.049 457.353 270.651 457.884 270.651ZM471.288 282.603C471.819 282.603 472.35 282.205 472.483 281.673C472.616 281.408 472.616 281.142 472.483 280.877L471.288 277.291L470.094 280.877C469.961 281.142 469.961 281.408 470.094 281.673C470.227 282.205 470.625 282.603 471.288 282.603Z" fill="white"/>
<path d="M319.322 290.969H316.004V282.869L313.881 291.102H311.625L309.501 282.869V291.102H306.847V279.681H311.492L313.085 285.79L314.677 279.681H319.322V290.969Z" fill="white"/>
<path d="M328.878 290.969H320.251V279.548H328.878V282.205H323.702V283.931H327.817V286.454H323.702V288.313H328.878V290.969Z" fill="white"/>
<path d="M329.675 279.548H333.922C335.515 279.548 336.842 279.814 338.169 281.009C339.363 282.205 339.894 283.665 339.894 285.392C339.894 286.853 339.363 288.446 338.302 289.509C337.107 290.704 335.78 291.102 334.187 291.102H329.675V279.548ZM333.656 288.446C334.187 288.446 334.453 288.446 334.851 288.181C335.116 288.048 335.382 287.782 335.647 287.384C336.045 286.72 336.178 285.923 336.178 285.126C336.178 284.329 335.913 283.4 335.515 282.736C334.984 282.072 334.453 282.072 333.656 282.072H333.258V288.313H333.656V288.446Z" fill="white"/>
<path d="M344.009 290.969H340.425V279.548H344.009V290.969Z" fill="white"/>
<path d="M351.176 288.712H348.123L347.459 290.969H344.54L348.123 279.548H351.839L355.423 290.969H351.839L351.176 288.712ZM350.645 286.321L349.716 283.001L348.787 286.321H350.645Z" fill="white"/>
<path d="M364.713 286.853C364.448 289.509 362.59 291.235 359.935 291.235C356.484 291.235 354.626 288.712 354.626 285.525C354.626 282.205 356.219 279.416 359.802 279.416C362.722 279.416 364.448 281.142 364.58 284.064L361.262 284.197C361.262 283.267 360.864 282.072 359.802 282.072C358.21 282.072 358.21 284.462 358.21 285.525C358.21 286.72 358.343 288.579 359.802 288.579C360.864 288.579 361.262 287.649 361.395 286.72L364.713 286.853Z" fill="white"/>
<path d="M376.127 285.392C376.127 288.712 374.136 291.235 370.686 291.235C367.235 291.235 365.244 288.579 365.244 285.392C365.244 281.939 367.235 279.416 370.686 279.416C374.136 279.416 376.127 281.939 376.127 285.392ZM368.96 285.392C368.96 286.454 369.093 288.579 370.686 288.579C372.278 288.579 372.411 286.454 372.411 285.392C372.411 284.329 372.278 282.072 370.686 282.072C369.093 281.939 368.96 284.197 368.96 285.392Z" fill="white"/>
<path d="M389.134 290.969H385.816V282.869L383.692 291.102H381.436L379.313 282.869V291.102H376.658V279.681H381.303L382.896 285.79L384.489 279.681H389.134V290.969Z" fill="white"/>
<g opacity="0.5">
<path opacity="0.5" d="M252.696 299.469L249.644 287.782L255.616 298.274L255.483 298.406C254.687 298.938 253.758 299.203 252.829 299.469H252.696ZM250.573 290.04L252.962 299.07C253.758 298.805 254.554 298.539 255.218 298.141L250.573 290.04Z" fill="white"/>
<path opacity="0.5" d="M247.387 299.469H247.255C246.326 299.203 245.529 298.805 244.6 298.406L244.468 298.274L249.909 288.845H250.175V289.11L247.387 299.469ZM244.998 298.141C245.662 298.539 246.458 298.805 247.255 299.07L249.644 290.04L244.998 298.141Z" fill="white"/>
<path opacity="0.5" d="M250.042 299.734H249.909V287.649L252.962 299.336H252.829C251.9 299.734 250.971 299.734 250.042 299.734ZM250.175 290.173V299.469C250.971 299.469 251.767 299.336 252.564 299.203L250.175 290.173Z" fill="white"/>
<path opacity="0.5" d="M250.042 299.734C249.113 299.734 248.184 299.602 247.255 299.336H247.122L250.175 287.649V299.734H250.042ZM247.52 299.203C248.317 299.336 249.113 299.469 249.909 299.469V290.173L247.52 299.203Z" fill="white"/>
<path opacity="0.5" d="M255.351 298.406L249.909 288.977L250.042 288.712L257.872 296.547L257.74 296.68C257.076 297.344 256.28 297.875 255.483 298.406H255.351ZM250.838 289.907L255.483 298.008C256.147 297.61 256.811 297.078 257.342 296.547L250.838 289.907Z" fill="white"/>
<path opacity="0.5" d="M242.477 296.68C241.68 295.883 241.15 295.086 240.619 294.29L240.486 294.157L249.776 288.712L249.909 288.579L250.042 288.977H249.909L242.477 296.68ZM241.017 294.29C241.415 294.954 241.946 295.618 242.477 296.282L248.98 289.774L241.017 294.29Z" fill="white"/>
<path opacity="0.5" d="M250.042 289.11L240.486 283.665L240.619 283.533C241.15 282.736 241.68 281.939 242.344 281.275L242.477 281.142L250.175 288.845L250.042 289.11ZM241.017 283.533L249.113 288.181L242.477 281.673C241.946 282.205 241.415 282.869 241.017 283.533Z" fill="white"/>
<path opacity="0.5" d="M250.838 289.907L250.042 289.11L250.175 288.977L250.042 289.11L242.344 281.408L242.477 281.275C243.14 280.611 243.937 280.08 244.733 279.548L244.866 279.416L250.838 289.907ZM242.742 281.408L249.246 287.915L244.6 279.814C243.937 280.345 243.273 280.876 242.742 281.408Z" fill="white"/>
<path opacity="0.5" d="M250.573 290.04L244.6 279.548L244.733 279.416C245.529 278.884 246.458 278.619 247.388 278.353H247.52L250.573 290.04ZM244.999 279.814L249.644 287.915L247.255 278.884C246.458 279.017 245.662 279.416 244.999 279.814Z" fill="white"/>
<path opacity="0.5" d="M250.706 289.11H250.042L239.557 286.321V286.189C239.822 285.259 240.22 284.462 240.619 283.533L240.751 283.4L250.706 289.11ZM239.955 286.056L248.98 288.446L240.884 283.798C240.486 284.595 240.22 285.259 239.955 286.056Z" fill="white"/>
<path opacity="0.5" d="M250.042 289.11H239.159V288.977C239.159 288.048 239.291 287.118 239.557 286.189V286.056L250.307 288.977L250.042 289.11ZM239.557 288.845H248.847L239.822 286.454C239.69 287.118 239.557 288.048 239.557 288.845Z" fill="white"/>
<path opacity="0.5" d="M244.733 298.406L244.6 298.274C243.804 297.742 243.008 297.211 242.344 296.547L242.211 296.414L249.909 288.712H250.44L250.175 288.977L244.733 298.406ZM242.742 296.547C243.273 297.078 243.937 297.61 244.6 298.008L249.246 289.907L242.742 296.547Z" fill="white"/>
<path opacity="0.5" d="M240.751 294.555L240.619 294.422C240.088 293.625 239.822 292.696 239.557 291.766V291.633L250.042 288.845H250.706L250.175 289.11L240.751 294.555ZM239.955 291.899C240.22 292.696 240.486 293.493 240.884 294.157L248.98 289.509L239.955 291.899Z" fill="white"/>
<path opacity="0.5" d="M239.69 291.899V291.766C239.424 290.837 239.292 289.907 239.292 288.977V288.845H251.369L239.69 291.899ZM239.557 289.11C239.557 289.907 239.69 290.704 239.822 291.501L248.847 289.11H239.557Z" fill="white"/>
<path opacity="0.5" d="M249.644 290.04L252.696 278.353H252.829C253.758 278.619 254.554 279.017 255.483 279.416L255.616 279.548L249.644 290.04ZM252.962 278.884L250.573 287.915L255.218 279.814C254.422 279.416 253.758 279.017 252.962 278.884Z" fill="white"/>
<path opacity="0.5" d="M249.246 289.907L255.218 279.416L255.351 279.548C256.147 280.08 256.943 280.611 257.607 281.275L257.74 281.408L249.246 289.907ZM255.484 279.947L250.838 288.048L257.342 281.54C256.811 280.876 256.147 280.345 255.484 279.947Z" fill="white"/>
<path opacity="0.5" d="M257.607 296.68L250.042 289.11L250.307 288.845C250.971 289.509 251.635 290.04 252.431 290.438C253.227 290.837 254.024 291.235 254.953 291.501L259.598 294.157L259.465 294.29C258.934 295.219 258.403 296.016 257.607 296.68ZM252.033 290.704L257.607 296.282C258.138 295.75 258.669 295.086 259.067 294.422L254.82 291.899C253.891 291.633 253.094 291.235 252.165 290.837C252.165 290.704 252.033 290.704 252.033 290.704Z" fill="white"/>
<path opacity="0.5" d="M259.332 294.555L253.625 291.235L254.82 291.501C255.749 291.766 256.545 291.899 257.474 291.899C258.403 291.899 259.332 291.766 260.129 291.501L260.394 291.368L260.261 291.634C259.996 292.563 259.598 293.36 259.2 294.29L259.332 294.555ZM255.749 292.032L259.2 294.024C259.598 293.36 259.863 292.696 260.129 291.899C259.332 292.032 258.403 292.165 257.607 292.165C256.943 292.298 256.412 292.165 255.749 292.032Z" fill="white"/>
<path opacity="0.5" d="M249.909 290.173V278.088H250.042C250.971 278.088 251.9 278.22 252.829 278.486H252.962L249.909 290.173ZM250.175 278.486V287.782L252.564 278.752C251.767 278.619 250.971 278.486 250.175 278.486Z" fill="white"/>
<path opacity="0.5" d="M250.175 290.173L247.122 278.486H247.255C248.184 278.22 249.113 278.088 250.042 278.088H250.175V290.173ZM247.52 278.752L249.909 287.782V278.486C249.113 278.486 248.317 278.619 247.52 278.752Z" fill="white"/>
<path opacity="0.5" d="M257.607 292.297H257.474V280.213L260.527 291.899H260.394C259.465 292.165 258.536 292.297 257.607 292.297ZM257.74 282.603V291.899C258.536 291.899 259.332 291.766 260.129 291.633L257.74 282.603Z" fill="white"/>
<path opacity="0.5" d="M260.261 291.899L257.209 280.213L263.181 290.704L263.049 290.837C262.252 291.368 261.323 291.633 260.394 291.899H260.261ZM258.005 282.603L260.394 291.633C261.19 291.368 261.987 291.102 262.65 290.704L258.005 282.603Z" fill="white"/>
<path opacity="0.5" d="M257.74 292.297H257.607C256.678 292.297 255.749 292.165 254.82 291.899H254.687L257.607 281.142L257.872 281.408V281.54V292.297H257.74ZM255.085 291.633C255.882 291.766 256.678 291.899 257.474 291.899V282.603L255.085 291.633Z" fill="white"/>
<path opacity="0.5" d="M254.953 291.899H254.82C253.891 291.633 253.094 291.235 252.165 290.837L252.033 290.704L258.005 280.213L254.953 291.899ZM252.431 290.571C253.094 290.969 253.891 291.235 254.687 291.501L257.076 282.47L252.431 290.571Z" fill="white"/>
<path opacity="0.5" d="M252.298 290.837L252.165 290.704C251.369 290.173 250.573 289.641 249.909 288.977L249.776 288.845L258.271 280.345L252.298 290.837ZM250.307 288.977C250.838 289.509 251.502 290.04 252.298 290.438L256.943 282.337L250.307 288.977Z" fill="white"/>
<path opacity="0.5" d="M267.959 284.329L257.474 281.54H257.342V281.142H257.474H268.225V281.275C268.225 282.205 268.092 283.134 267.827 284.064L267.959 284.329ZM258.801 281.54L267.827 283.931C267.959 283.134 268.092 282.337 268.092 281.54H258.801Z" fill="white"/>
<path opacity="0.5" d="M257.607 281.673L257.342 281.541L260.129 270.916H260.261C261.19 271.182 261.987 271.58 262.916 271.979L263.049 272.112L257.607 281.673ZM260.527 271.315L258.138 280.345L262.783 272.244C261.987 271.846 261.19 271.58 260.527 271.315Z" fill="white"/>
<path opacity="0.5" d="M257.474 281.939V270.518H257.607C258.536 270.518 259.465 270.651 260.394 270.916H260.527L257.74 281.408L257.474 281.939ZM257.74 270.916V280.213L260.129 271.182C259.332 271.049 258.536 270.916 257.74 270.916Z" fill="white"/>
<path opacity="0.5" d="M257.74 282.603L254.687 270.916H254.82C255.749 270.651 256.678 270.518 257.607 270.518H257.74V282.603ZM255.085 271.182L257.474 280.212V270.916C256.678 270.916 255.749 271.049 255.085 271.182Z" fill="white"/>
<path opacity="0.5" d="M257.076 282.072L262.916 271.979L263.049 272.112C263.845 272.643 264.641 273.174 265.305 273.838L265.438 273.971L257.74 281.673L257.076 282.072ZM263.049 272.377L258.403 280.478L264.907 273.971C264.376 273.307 263.712 272.776 263.049 272.377Z" fill="white"/>
<path opacity="0.5" d="M257.607 281.541H257.209L265.172 273.572L265.305 273.705C265.969 274.369 266.499 275.166 267.03 275.963L267.163 276.096L257.607 281.541ZM265.172 274.104L258.536 280.744L266.632 276.096C266.234 275.299 265.703 274.635 265.172 274.104Z" fill="white"/>
<path opacity="0.5" d="M266.897 286.985L257.474 281.54H257.342V281.142L257.607 281.275L268.092 284.064V284.197C267.827 285.126 267.428 285.923 267.03 286.853L266.897 286.985ZM258.669 281.939L266.765 286.587C267.163 285.923 267.428 285.126 267.694 284.329L258.669 281.939Z" fill="white"/>
<path opacity="0.5" d="M257.076 281.541L257.474 281.275L267.959 278.486V278.619C268.225 279.549 268.357 280.478 268.357 281.408V281.541H257.076ZM267.827 278.884L258.802 281.275H268.092C268.092 280.478 267.959 279.681 267.827 278.884Z" fill="white"/>
<path opacity="0.5" d="M256.413 281.939L266.898 275.963L267.03 276.096C267.561 276.892 267.827 277.822 268.092 278.752V278.884L256.413 281.939ZM266.765 276.228L258.669 280.876L267.694 278.486C267.428 277.689 267.163 277.025 266.765 276.228Z" fill="white"/>
<path opacity="0.5" d="M258.403 282.337L249.909 273.838L250.042 273.705C250.706 273.041 251.502 272.51 252.298 271.979L252.431 271.846L258.403 282.337ZM250.307 273.838L256.811 280.345L252.165 272.244C251.502 272.776 250.838 273.307 250.307 273.838Z" fill="white"/>
<path opacity="0.5" d="M258.005 282.603L252.033 272.112L252.165 271.979C252.962 271.448 253.891 271.182 254.82 270.916H254.953V271.049L258.005 282.603ZM252.431 272.244L257.076 280.345L254.687 271.315C253.891 271.58 253.227 271.846 252.431 272.244Z" fill="white"/>
<path opacity="0.5" d="M257.474 281.541C256.811 280.877 256.147 280.345 255.351 279.947C254.554 279.548 253.758 279.15 252.829 278.884L248.184 276.228L248.317 276.096C248.847 275.299 249.378 274.502 250.042 273.838L250.175 273.705L257.873 281.408L257.474 281.541ZM252.829 278.486C253.758 278.752 254.554 279.15 255.484 279.548C255.484 279.548 255.616 279.549 255.616 279.681L250.042 274.104C249.511 274.635 248.98 275.299 248.582 275.963L252.829 278.486Z" fill="white"/>
<path opacity="0.5" d="M253.891 279.15L252.696 278.884C251.767 278.619 250.838 278.486 250.042 278.486C249.113 278.486 248.184 278.619 247.388 278.884L247.122 279.017L247.255 278.752C247.52 277.822 247.918 277.025 248.317 276.096L248.449 275.963L253.891 279.15ZM248.449 276.228C248.051 276.892 247.786 277.556 247.52 278.353C248.317 278.22 249.246 278.088 250.042 278.088C250.706 278.088 251.236 278.088 251.767 278.22L248.449 276.228Z" fill="white"/>
<path opacity="0.5" d="M265.172 289.243L257.474 281.541L257.607 281.275L267.163 286.72L267.03 286.853C266.499 287.649 265.968 288.446 265.172 289.243ZM258.536 282.205L265.172 288.845C265.703 288.313 266.234 287.649 266.632 286.853L258.536 282.205Z" fill="white"/>
<path opacity="0.5" d="M262.916 290.837L256.943 280.345L265.438 288.845L265.305 288.977C264.641 289.641 263.845 290.173 263.049 290.704L262.916 290.837ZM258.403 282.337L263.049 290.438C263.712 290.04 264.376 289.509 264.907 288.977L258.403 282.337Z" fill="white"/>
</g>
<path d="M176.116 288.978H174.656V284.064L172.002 287.251C171.869 287.384 171.736 287.384 171.603 287.251L168.949 284.064V288.978H167.489V282.205C167.489 281.806 167.887 281.408 168.285 281.408C168.551 281.408 168.816 281.541 168.949 281.806L171.736 285.259L174.656 281.674C174.789 281.541 175.054 281.408 175.187 281.408C175.585 281.408 175.983 281.806 175.983 282.205V288.978H176.116Z" fill="white"/>
<path d="M213.942 288.977H215.667L216.596 286.985H219.914L220.976 288.977H222.701L218.985 281.806C218.852 281.54 218.587 281.408 218.321 281.408C218.056 281.408 217.791 281.54 217.658 281.806L213.942 288.977ZM218.189 283.533L219.251 285.657H217.127L218.189 283.533Z" fill="white"/>
<path d="M188.194 288.977H187.132L182.089 283.931V288.977H180.629V282.205C180.629 281.806 181.027 281.408 181.425 281.408C181.69 281.408 181.823 281.541 182.089 281.673L186.734 286.321V281.806C186.734 281.54 186.999 281.275 187.265 281.275H187.796C188.061 281.275 188.326 281.54 188.326 281.806V288.977H188.194Z" fill="white"/>
<path d="M194.432 281.54C193.901 281.408 193.37 281.408 192.573 281.408H190.45C190.052 281.408 189.654 281.806 189.654 282.204V288.977H192.175C192.972 288.977 193.635 288.845 194.299 288.712C196.29 288.181 197.351 286.853 197.351 285.126C197.351 283.267 196.29 282.072 194.432 281.54ZM194.033 287.384C193.502 287.517 192.972 287.517 192.308 287.517H191.379V282.868H192.573C193.237 282.868 193.768 282.868 194.166 283.001C195.361 283.267 195.891 283.931 195.891 285.126C195.759 286.189 195.228 286.985 194.033 287.384Z" fill="white"/>
<path d="M228.01 285.923C229.205 285.525 229.736 284.861 229.736 283.665C229.736 282.205 228.541 281.275 226.683 281.275H224.161C223.763 281.275 223.365 281.673 223.365 282.072V288.845H224.825V286.056H226.152L228.01 288.845H229.868L228.01 285.923ZM224.958 284.728V282.869H226.816C227.347 282.869 228.143 283.001 228.143 283.798C228.143 284.197 228.01 284.728 226.55 284.728H224.958Z" fill="white"/>
<path d="M177.576 288.977H179.036V281.939C179.036 281.673 178.77 281.408 178.505 281.408H177.974C177.709 281.408 177.443 281.673 177.443 281.939V288.977H177.576Z" fill="white"/>
<path d="M213.013 288.977H211.42V285.79H207.438V288.977H205.978V281.939C205.978 281.673 206.244 281.408 206.509 281.408H207.04C207.306 281.408 207.571 281.673 207.571 281.939V284.462H211.553V281.939C211.553 281.673 211.818 281.408 212.084 281.408H212.614C212.88 281.408 213.145 281.673 213.145 281.939V288.977H213.013Z" fill="white"/>
<path d="M201.731 284.462C200.67 284.329 200.006 284.197 200.006 283.533C200.006 283.001 200.537 282.736 201.466 282.736C202.528 282.736 203.324 283.134 203.722 283.267C203.855 283.267 203.855 283.267 203.855 283.134L204.253 282.205C204.253 282.205 204.253 282.204 204.253 282.072C204.253 281.939 204.253 281.939 204.12 281.939C203.324 281.541 202.262 281.275 201.333 281.275C199.475 281.275 198.413 282.072 198.413 283.533C198.413 284.197 198.679 284.728 199.077 285.126C199.608 285.525 200.537 285.657 201.333 285.79C202.395 285.923 203.059 286.056 203.059 286.587C203.059 287.517 201.864 287.517 201.333 287.517C200.537 287.517 199.74 287.251 199.077 286.853L198.944 286.72L198.811 286.853L198.281 287.782L198.148 288.181L198.281 288.313C198.811 288.712 199.74 289.11 201.2 289.11C203.191 289.11 204.518 288.181 204.518 286.72C204.651 284.861 203.059 284.595 201.731 284.462Z" fill="white"/>
<path d="M236.239 285.525C236.239 285.657 236.106 285.79 235.973 285.79H232.655V287.517H236.637V288.977H231.063V282.204C231.063 281.806 231.461 281.408 231.859 281.408H236.239C236.372 281.408 236.504 281.54 236.504 281.673V282.47C236.504 282.603 236.372 282.736 236.239 282.736H232.655V284.329H235.973C236.106 284.329 236.239 284.462 236.239 284.595V285.525Z" fill="white"/>
<path d="M250.042 300C243.937 300 238.893 295.086 238.893 288.845C238.893 282.736 243.804 277.689 250.042 277.689C252.962 277.689 255.749 278.884 257.872 280.876L257.209 281.54C255.351 279.681 252.696 278.619 250.042 278.619C244.468 278.619 239.955 283.134 239.955 288.712C239.955 294.289 244.468 298.805 250.042 298.805C254.687 298.805 258.802 295.618 259.863 291.102L260.792 291.368C259.598 296.547 255.218 300 250.042 300Z" fill="white"/>
<path d="M250.042 289.907C249.511 289.907 249.113 289.509 249.113 288.977C249.113 288.446 249.511 288.048 250.042 288.048C250.573 288.048 250.971 288.446 250.971 288.977C250.971 289.509 250.573 289.907 250.042 289.907ZM250.042 288.845C250.042 288.845 250.042 288.977 250.042 288.845C250.042 288.977 250.042 288.977 250.042 288.845C250.042 288.977 250.042 288.977 250.042 288.845C250.042 288.977 250.042 288.845 250.042 288.845Z" fill="white"/>
<path d="M257.607 292.43C254.687 292.43 251.9 291.368 249.909 289.243L250.573 288.579C252.431 290.438 254.953 291.501 257.607 291.501C258.536 291.501 259.465 291.368 260.261 291.102C264.641 289.907 267.694 285.923 267.694 281.275C267.694 275.697 263.181 271.182 257.607 271.182C252.962 271.182 248.847 274.369 247.786 278.884L246.857 278.619C248.051 273.572 252.564 270.12 257.607 270.12C263.712 270.12 268.756 275.033 268.756 281.275C268.756 286.321 265.438 290.704 260.527 292.032C259.598 292.297 258.536 292.43 257.607 292.43Z" fill="white"/>
<path d="M257.607 282.205C257.076 282.205 256.811 281.806 256.811 281.408C256.811 280.876 257.209 280.611 257.607 280.611C258.138 280.611 258.403 281.009 258.403 281.408C258.403 281.806 258.005 282.205 257.607 282.205ZM257.607 281.275C257.474 281.275 257.474 281.275 257.607 281.275C257.474 281.408 257.607 281.541 257.607 281.541C257.607 281.408 257.74 281.408 257.607 281.275C257.74 281.275 257.607 281.275 257.607 281.275Z" fill="white"/>
<path d="M257.304 281.047L249.729 288.68L250.388 289.335L257.963 281.702L257.304 281.047Z" fill="white"/>
</g>
<defs>
<clipPath id="clip0_3_1674">
<rect width="535" height="300" fill="white"/>
</clipPath>
</defs>
</svg>
