<svg width="39" height="38" viewBox="0 0 39 38" fill="none" xmlns="http://www.w3.org/2000/svg">
<g clip-path="url(#clip0_4_3638)">
<path d="M29.1927 0.00762497L24.3073 -0.000213623C18.8188 -0.000213623 15.2719 3.63885 15.2719 9.27128V13.5461H10.3598C9.93539 13.5461 9.59167 13.8902 9.59167 14.3146V20.5083C9.59167 20.9328 9.93579 21.2765 10.3598 21.2765H15.2719V36.9051C15.2719 37.3295 15.6156 37.6733 16.04 37.6733H22.4488C22.8733 37.6733 23.217 37.3291 23.217 36.9051V21.2765H28.9603C29.3847 21.2765 29.7284 20.9328 29.7284 20.5083L29.7308 14.3146C29.7308 14.1108 29.6497 13.9156 29.5058 13.7714C29.362 13.6272 29.166 13.5461 28.9622 13.5461H23.217V9.92227C23.217 8.18054 23.632 7.29634 25.9009 7.29634L29.1919 7.29517C29.6159 7.29517 29.9597 6.95105 29.9597 6.52699V0.775807C29.9597 0.352131 29.6163 0.00840883 29.1927 0.00762497Z" fill="#0A2756"/>
</g>
<defs>
<clipPath id="clip0_4_3638">
<rect width="37.6735" height="37.6735" fill="white" transform="translate(0.938965)"/>
</clipPath>
</defs>
</svg>
